<svg width="32" height="32" viewBox="0 0 32 32" fill="none" xmlns="http://www.w3.org/2000/svg">
<path d="M2.52572 6.83594C1.59322 7.55094 1.11322 9.53844 1.02572 12.3534C0.938219 15.1684 1.44322 16.6984 1.62822 17.1609C1.81322 17.6234 3.20322 18.3159 4.76572 19.5234C5.91322 20.4134 14.9232 26.6859 15.9907 27.1734C17.6882 27.9459 18.7682 26.3834 18.7682 26.3834C19.0405 26.5289 19.3445 26.6051 19.6532 26.6051C19.962 26.6051 20.2659 26.5289 20.5382 26.3834C21.6007 25.7534 21.4782 24.9709 21.4782 24.9709C21.4782 24.9709 22.5707 25.2209 23.1307 24.7209C23.6907 24.2209 23.9332 23.0434 23.9332 23.0434C24.1591 23.1362 24.4062 23.1646 24.6472 23.1253C24.8882 23.086 25.1135 22.9807 25.2982 22.8209C25.9232 22.2634 26.3982 21.5084 25.7357 20.4784C25.0732 19.4484 22.3782 16.2134 21.6782 15.3034C20.9782 14.3934 19.1782 9.20344 17.4457 8.68344C15.7132 8.16344 14.0032 8.29844 12.1957 8.83594C10.3882 9.37344 8.69572 9.32094 6.69572 8.75094C4.69572 8.18094 2.52572 6.83594 2.52572 6.83594Z" fill="#70534A"/>
<path d="M19.5837 26.9204C19.348 26.9217 19.1138 26.8829 18.8912 26.8054C18.3262 26.6079 16.1412 24.9429 15.7612 24.3654C15.7354 24.3257 15.7177 24.2813 15.7091 24.2347C15.7005 24.1882 15.7012 24.1404 15.711 24.094C15.7209 24.0477 15.7398 24.0038 15.7666 23.9648C15.7935 23.9258 15.8277 23.8924 15.8675 23.8667C15.9072 23.8409 15.9516 23.8232 15.9982 23.8146C16.0447 23.806 16.0925 23.8066 16.1388 23.8165C16.1852 23.8264 16.2291 23.8453 16.2681 23.8721C16.3071 23.8989 16.3404 23.9332 16.3662 23.9729C16.6162 24.3729 18.6662 25.9729 19.1162 26.1254C19.3418 26.1949 19.5799 26.2138 19.8136 26.181C20.0473 26.1482 20.271 26.0643 20.4687 25.9354C20.6473 25.8246 20.797 25.673 20.9056 25.4931C21.0143 25.3131 21.0787 25.1101 21.0937 24.9004C21.0978 24.8533 21.1112 24.8075 21.133 24.7655C21.1548 24.7236 21.1847 24.6863 21.2209 24.6559C21.2571 24.6255 21.2989 24.6025 21.344 24.5883C21.3891 24.574 21.4366 24.5688 21.4837 24.5729C21.5308 24.577 21.5767 24.5904 21.6186 24.6122C21.6606 24.634 21.6978 24.6639 21.7282 24.7001C21.7586 24.7363 21.7816 24.7782 21.7959 24.8233C21.8101 24.8684 21.8153 24.9158 21.8112 24.9629C21.7867 25.2817 21.688 25.5903 21.523 25.8642C21.3581 26.1381 21.1315 26.3696 20.8612 26.5404C20.4797 26.785 20.0368 26.9167 19.5837 26.9204Z" fill="#4A2F27"/>
<path d="M22.2118 25.2885C21.6262 25.2628 21.0554 25.0973 20.5468 24.806C19.7618 24.406 18.7243 23.381 17.9668 22.631L17.5593 22.2335C17.4923 22.1668 17.4542 22.0764 17.4531 21.9818C17.4521 21.8873 17.4883 21.7961 17.5538 21.7279C17.6194 21.6597 17.7091 21.62 17.8036 21.6173C17.8982 21.6146 17.99 21.6492 18.0593 21.7135C18.1793 21.826 18.3093 21.9635 18.4743 22.1185C19.1568 22.7935 20.1893 23.816 20.8768 24.166C21.7518 24.6085 22.1893 24.6035 22.5018 24.5385C23.0968 24.4235 23.4668 23.8635 23.4643 23.0785C23.4643 22.983 23.5022 22.8915 23.5697 22.824C23.6372 22.7565 23.7288 22.7185 23.8243 22.7185C23.9198 22.7185 24.0113 22.7565 24.0788 22.824C24.1464 22.8915 24.1843 22.983 24.1843 23.0785C24.1843 24.211 23.5818 25.0635 22.6393 25.246C22.4986 25.2745 22.3553 25.2888 22.2118 25.2885Z" fill="#4A2F27"/>
<path d="M24.2782 23.5224C24.0815 23.5224 23.8866 23.4859 23.7032 23.4149C22.7032 23.0199 21.3407 21.7749 19.5757 19.6074C19.5458 19.5706 19.5235 19.5283 19.5099 19.4829C19.4964 19.4375 19.492 19.3899 19.4968 19.3428C19.5017 19.2957 19.5158 19.25 19.5384 19.2083C19.5609 19.1666 19.5914 19.1298 19.6282 19.0999C19.665 19.07 19.7073 19.0477 19.7527 19.0342C19.7981 19.0206 19.8457 19.0162 19.8928 19.0211C19.9399 19.0259 19.9856 19.04 20.0273 19.0626C20.069 19.0851 20.1058 19.1156 20.1357 19.1524C21.7932 21.1924 23.0832 22.4024 23.9632 22.7449C24.4057 22.9174 25.0632 22.6674 25.4632 22.1774C25.6125 22.024 25.7065 21.8253 25.7305 21.6126C25.7545 21.3999 25.7071 21.1852 25.5957 21.0024C24.9218 20.007 24.1931 19.0497 23.4132 18.1349C22.1357 16.5493 20.9577 14.8861 19.8857 13.1549C19.8385 13.0735 19.8251 12.9768 19.8484 12.8856C19.8716 12.7944 19.9296 12.7158 20.0099 12.6668C20.0903 12.6178 20.1866 12.6022 20.2783 12.6234C20.3701 12.6445 20.4499 12.7007 20.5007 12.7799C21.5537 14.4822 22.7109 16.1178 23.9657 17.6774C24.7616 18.6117 25.5045 19.5899 26.1907 20.6074C26.6032 21.2324 26.5382 21.9874 26.0182 22.6299C25.8087 22.8943 25.545 23.1107 25.2449 23.2646C24.9447 23.4186 24.6151 23.5065 24.2782 23.5224ZM17.0557 27.6699C16.1582 27.6699 15.2907 27.1999 14.8507 26.9624C14.7782 26.9249 14.1807 26.5299 14.1307 26.5049L14.6632 25.2899C14.6632 25.2899 15.3282 26.3724 15.8782 26.6599C16.7832 27.1324 17.5957 27.1999 18.2557 26.3249L18.8307 26.7599C18.6315 27.0448 18.3656 27.2767 18.0562 27.4353C17.7468 27.5939 17.4033 27.6745 17.0557 27.6699ZM5.43069 20.6374C4.45802 19.6367 3.3801 18.7441 2.21569 17.9749C2.01408 17.8473 1.84331 17.6765 1.71569 17.4749C1.58232 17.2486 1.52207 16.9867 1.54319 16.7249C3.16486 17.6536 4.64914 18.8039 5.95319 20.1424L5.43069 20.6374ZM9.89819 9.58741C6.93319 9.58741 4.19569 8.45241 2.22819 7.13491C2.29476 7.00692 2.39964 6.90291 2.52819 6.83741C2.60676 6.79707 2.69272 6.77315 2.78084 6.76714C2.86895 6.76112 2.95737 6.77312 3.04069 6.80241C4.86569 7.93741 7.29069 8.86741 9.89819 8.86741H9.91569C10.6657 8.86741 11.6657 8.56741 12.2657 8.38991L12.5657 8.30241C14.0407 7.88491 16.7707 7.86241 18.5382 8.57241L17.7507 9.02241C15.6232 8.61741 14.1357 8.60991 12.7757 8.99491L12.4857 9.07991C11.8482 9.26991 10.7807 9.57991 9.92819 9.57991L9.89819 9.58741Z" fill="#4A2F27"/>
<path d="M30.8266 11.2512C30.4566 8.78623 29.9691 7.11123 29.6066 6.70873C29.1916 6.24873 28.4041 6.86123 26.8966 7.39873C25.3891 7.93623 23.3641 8.31623 22.3966 8.32873C21.4291 8.34123 18.4041 8.37373 16.7491 8.85623C15.4066 9.25123 13.6916 10.5012 11.7091 11.4562C10.9591 11.8187 10.0666 11.9787 10.0741 12.6087C10.0784 13.0206 10.2333 13.4166 10.5097 13.722C10.7861 14.0274 11.1647 14.221 11.5741 14.2662C12.7391 14.4787 14.9166 13.3737 16.0091 13.0162C17.1016 12.6587 17.1566 12.5637 18.5341 12.7662C19.7491 12.9387 20.8916 13.4312 20.9941 13.6012C21.8801 15.0332 22.8729 16.3963 23.9641 17.6787C24.6616 18.5262 26.3016 20.7662 26.3016 20.7662C27.4566 19.5487 28.1441 18.5887 28.6141 18.0862C29.0841 17.5837 30.8241 16.3112 30.8241 16.3112C31.0524 14.6323 31.0532 12.9303 30.8266 11.2512ZM6.84915 22.5737C6.5765 22.6676 6.28019 22.6668 6.00803 22.5716C5.73587 22.4763 5.50376 22.2921 5.34915 22.0487C4.84915 21.3162 5.37915 20.4612 5.89415 19.8637C6.40915 19.2662 7.49665 18.9612 7.98415 19.3312C8.47165 19.7012 8.49915 20.5162 8.49915 20.5162C8.49915 20.5162 9.74915 19.4737 10.6266 20.0162C11.6741 20.6462 11.0641 21.8987 11.0641 21.8987C11.0641 21.8987 12.3716 20.6487 13.3316 21.4462C14.1491 22.1262 13.5266 23.6962 13.5266 23.6962C13.5266 23.6962 14.8191 23.0012 14.9816 24.5012C15.0941 25.5687 14.7316 26.8487 13.5491 27.1437C11.9066 27.5537 11.6391 26.2137 11.6391 26.2137C11.6391 26.2137 10.5941 27.0337 9.70415 26.4312C8.81415 25.8287 8.99915 24.5787 8.99915 24.5787C8.99915 24.5787 7.81915 24.7812 7.20665 24.2112C6.59415 23.6412 6.84915 22.5737 6.84915 22.5737Z" fill="#B8B8B8"/>
</svg>
