<svg width="32" height="32" viewBox="0 0 32 32" fill="none" xmlns="http://www.w3.org/2000/svg">
<path d="M2.52572 5.83594C1.59322 6.55094 1.11322 8.53844 1.02572 11.3534C0.938219 14.1684 1.44322 15.6984 1.62822 16.1609C1.81322 16.6234 3.20322 17.3159 4.76572 18.5234C5.91322 19.4134 14.8882 25.7734 15.9907 26.1734C18.2007 26.9759 18.7682 25.3834 18.7682 25.3834C18.7682 25.3834 19.9357 25.9109 20.8057 25.3834C21.8657 24.7534 21.4782 23.9584 21.4782 23.9584C21.4782 23.9584 22.6182 24.3359 23.3407 23.7784C23.6152 23.5898 23.8212 23.3174 23.928 23.002C24.0348 22.6865 24.0366 22.345 23.9332 22.0284C24.1748 22.1681 24.4484 22.2428 24.7275 22.2455C25.0065 22.2481 25.2815 22.1785 25.5257 22.0434C26.4407 21.5434 26.9032 20.7934 26.3032 19.7384C25.5732 18.4659 22.6507 14.9984 21.9507 14.0884C21.2507 13.1784 19.1782 8.20344 17.4507 7.68344C15.7209 7.12203 13.8634 7.08636 12.1132 7.58094C10.3032 8.11844 8.69822 8.33094 6.68822 7.75094C4.67822 7.17094 2.52572 5.83594 2.52572 5.83594Z" fill="#B8B8B8"/>
<path d="M30.8276 10.25C30.4576 7.78501 29.9701 6.11001 29.6076 5.70751C29.1926 5.24751 28.4801 6.16001 26.9726 6.70751C25.4651 7.25501 22.7501 7.43501 22.7501 7.43501C22.7501 7.43501 18.3826 7.30501 16.7501 7.85501C16.1351 8.06251 10.0676 10.605 9.8851 11.69C9.8076 12.145 10.3126 13.1625 11.5676 13.265C13.6051 13.4325 16.1501 11.6575 16.1501 11.6575C16.1801 11.605 16.4826 11.5225 17.8751 11.5225C19.2676 11.5225 20.8751 12.435 20.9876 12.605C21.8762 14.0355 22.8715 15.3969 23.9651 16.6775C24.6626 17.525 26.3026 19.765 26.3026 19.765C26.3026 19.765 28.1451 17.5875 28.6151 17.085C29.0851 16.5825 30.8251 15.31 30.8251 15.31C31.0533 13.6311 31.0541 11.9291 30.8276 10.25ZM6.6476 21.4575C6.6476 21.4575 5.9826 21.7075 5.3751 20.8225C4.7676 19.9375 5.2751 19.35 5.8951 18.8625C6.5151 18.375 7.3351 18.14 7.8201 18.51C8.13656 18.774 8.37439 19.12 8.5076 19.51C8.5076 19.51 9.5076 18.6875 10.4176 19.1925C10.6749 19.3291 10.89 19.5332 11.0398 19.783C11.1896 20.0328 11.2683 20.3188 11.2676 20.61C11.5426 20.4576 11.8519 20.3777 12.1663 20.3777C12.4808 20.3777 12.79 20.4576 13.0651 20.61C13.9876 21.14 13.5351 22.6775 13.5351 22.6775C13.8382 22.6905 14.1283 22.8047 14.3589 23.0018C14.5896 23.1989 14.7475 23.4676 14.8076 23.765C15.0101 24.82 14.7576 25.945 13.5576 26.145C12.3576 26.345 11.6476 25.215 11.6476 25.215C11.6476 25.215 10.4426 25.9425 9.5551 25.34C8.6676 24.7375 8.7501 23.485 8.7501 23.485C8.7501 23.485 7.6626 23.665 7.0501 23.095C6.4376 22.525 6.6476 21.4575 6.6476 21.4575Z" fill="#A56C43"/>
<path d="M26.1546 19.5616L25.7896 19.0216C26.0671 19.1741 26.7071 19.0566 27.5146 17.9191C28.0146 17.1966 28.9821 15.7391 30.8046 14.9816C30.8046 14.9816 30.9396 15.6716 30.5321 15.9516C29.5889 16.5983 28.7664 17.4056 28.1021 18.3366C27.6296 19.0228 27.0652 19.6411 26.4246 20.1741C26.3781 19.9534 26.2862 19.7448 26.1546 19.5616ZM23.1646 15.6991C23.1646 15.6991 22.9646 15.1741 23.2996 14.8741C23.6946 14.5241 24.1346 14.6516 24.4371 14.6541C23.9797 14.5271 23.5298 14.3743 23.0896 14.1966C22.5293 13.9745 21.9952 13.6911 21.4971 13.3516C21.7069 13.7373 21.9363 14.112 22.1846 14.4741C22.4694 14.9143 22.7977 15.3247 23.1646 15.6991ZM15.0696 25.3166C15.22 25.0535 15.3137 24.762 15.3447 24.4606C15.3757 24.1592 15.3433 23.8547 15.2496 23.5666C15.1388 23.289 14.9624 23.0425 14.7356 22.8479C14.5088 22.6533 14.2383 22.5164 13.9471 22.4491L13.9696 22.4091L13.9471 22.3966C14.0544 22.0695 14.0827 21.7217 14.0296 21.3816C14.0043 21.1044 13.9012 20.8401 13.7323 20.619C13.5633 20.3978 13.3354 20.2289 13.0746 20.1316C12.6074 19.9583 12.0925 19.9646 11.6296 20.1491C11.6074 19.9093 11.5258 19.6789 11.3923 19.4786C11.2587 19.2782 11.0774 19.1143 10.8646 19.0016C9.91715 18.4266 9.21465 18.8016 8.78215 19.0516C8.69626 18.8338 8.56517 18.6368 8.39754 18.4735C8.2299 18.3102 8.02953 18.1843 7.80965 18.1041C7.44965 17.9591 6.55965 17.7716 5.51965 18.7066L6.05465 19.2066C6.77715 18.5891 7.31965 18.6916 7.54215 18.7816C7.71951 18.8364 7.87198 18.9518 7.97296 19.1076C8.07393 19.2634 8.117 19.4498 8.09465 19.6341C8.09465 19.8316 8.06215 20.0366 7.59465 20.4816C6.99715 21.0016 6.57465 21.0016 6.57465 21.0016C6.37357 21.0074 6.17508 20.955 6.00302 20.8508C5.83096 20.7466 5.69263 20.595 5.60465 20.4141C5.54465 20.3016 5.35465 19.9141 5.60465 19.6391C5.7629 19.4343 5.94885 19.2526 6.15715 19.0991L5.62715 18.5991C5.42339 18.7774 5.2321 18.9695 5.05465 19.1741C4.88192 19.3979 4.7817 19.6692 4.7674 19.9515C4.7531 20.2339 4.82541 20.5139 4.97465 20.7541C5.10925 21.0134 5.30417 21.2367 5.54301 21.405C5.78185 21.5734 6.05763 21.682 6.34715 21.7216C6.32355 22.0166 6.36707 22.3131 6.47445 22.5889C6.58182 22.8647 6.75027 23.1127 6.96715 23.3141C7.16712 23.4985 7.40498 23.637 7.66407 23.7199C7.92317 23.8028 8.19725 23.8281 8.46715 23.7941C8.44792 24.3174 8.62643 24.8288 8.96715 25.2266C9.78215 26.0641 10.7996 25.8516 11.4671 25.4991C11.583 25.7388 11.7515 25.9493 11.9602 26.1147C12.1689 26.2801 12.4123 26.3961 12.6721 26.4541C12.8235 26.4911 12.9788 26.5095 13.1346 26.5091C13.7021 26.5091 14.4421 26.5091 15.1671 25.0916C14.9421 24.9516 14.7271 24.8416 14.5371 24.7291C13.9846 25.8241 13.2521 25.8516 12.8371 25.7541C12.6561 25.7134 12.4888 25.6263 12.3516 25.5014C12.2144 25.3764 12.1121 25.218 12.0546 25.0416C12.6134 24.4353 13.1155 23.7793 13.5546 23.0816C14.0871 23.1941 14.4296 23.4366 14.5696 23.8066C14.6255 23.9898 14.6444 24.1823 14.6251 24.3729C14.6057 24.5635 14.5487 24.7483 14.4571 24.9166L15.0696 25.3166ZM8.74715 23.0216C8.74715 23.0216 7.97215 23.2891 7.47215 22.8066C7.31402 22.6628 7.19538 22.481 7.12754 22.2783C7.0597 22.0757 7.04493 21.859 7.08465 21.6491C7.78394 21.1144 8.40717 20.4869 8.93715 19.7841C8.99715 19.7516 9.74715 19.1466 10.4971 19.6066C10.6562 19.7255 10.7786 19.8868 10.8502 20.0721C10.9218 20.2574 10.9398 20.459 10.9021 20.6541C10.8321 20.9991 10.6746 21.4041 10.0121 22.1216C9.6632 22.5125 9.23089 22.8201 8.74715 23.0216ZM13.1896 22.3791C12.7697 23.2664 12.1674 24.0552 11.4221 24.6941C11.2996 24.7941 10.2671 25.5191 9.50215 24.7341C9.2662 24.4254 9.1579 24.0378 9.19965 23.6516C10.1161 22.9273 10.9017 22.0513 11.5221 21.0616C11.6935 20.9028 11.9058 20.7953 12.1352 20.7511C12.3645 20.7069 12.6016 20.7279 12.8196 20.8116C12.9576 20.8634 13.0779 20.9535 13.1664 21.0713C13.255 21.1891 13.3082 21.3297 13.3196 21.4766C13.3744 21.7843 13.3261 22.1016 13.1821 22.3791H13.1896Z" fill="#663D29"/>
<path d="M24.9063 14.7139H24.8663C23.0836 14.5539 21.3915 13.8564 20.0138 12.7139C19.5813 12.3789 19.2413 12.1164 18.9163 12.0664C17.9963 11.9289 17.0888 11.8164 16.1088 12.1139C15.883 12.2019 15.662 12.3011 15.4462 12.4114C14.5437 12.8389 13.1813 13.4864 12.1788 13.5914C11.8308 13.6427 11.4759 13.62 11.1373 13.5248C10.7987 13.4296 10.484 13.264 10.2137 13.0389C10.0224 12.8703 9.86838 12.6635 9.76161 12.4319C9.65484 12.2003 9.59766 11.9489 9.59375 11.6939C9.59375 10.8164 10.7038 10.3014 11.4388 9.95889C11.8413 9.77139 12.3863 9.45889 12.9637 9.13889C13.9637 8.57139 15.1187 7.92639 15.9637 7.66139C17.3438 7.22389 20.9788 7.09389 22.1438 7.08389C24.3706 7.06155 26.5607 6.51423 28.5363 5.48639C28.7244 5.37739 28.9429 5.33263 29.1587 5.35889C29.2582 5.37744 29.3515 5.42023 29.4304 5.48347C29.5093 5.5467 29.5714 5.62841 29.6113 5.72139C27.3594 7.0791 24.7807 7.79895 22.1512 7.80389C20.7212 7.81889 17.3813 7.96889 16.1813 8.34639C15.4088 8.59639 14.2987 9.21639 13.3212 9.76639C12.7287 10.0989 12.1713 10.4139 11.7438 10.6114C11.3163 10.8089 10.3162 11.2764 10.3162 11.6939C10.3198 11.8475 10.3555 11.9987 10.4209 12.1378C10.4863 12.2769 10.5801 12.4007 10.6962 12.5014C10.8918 12.6584 11.1181 12.7726 11.3605 12.8368C11.603 12.901 11.8561 12.9136 12.1038 12.8739C12.9838 12.7814 14.3313 12.1389 15.1388 11.7564C15.3875 11.6281 15.6438 11.5154 15.9062 11.4189C17.1213 11.0639 18.2662 11.2364 19.0237 11.3514C19.5237 11.4289 19.9612 11.7589 20.4537 12.1414C21.7263 13.2106 23.2978 13.861 24.9537 14.0039C25.0424 14.0182 25.1225 14.065 25.1786 14.135C25.2348 14.2051 25.2629 14.2935 25.2576 14.3831C25.2523 14.4727 25.214 14.5572 25.15 14.6201C25.086 14.6831 25.0009 14.72 24.9113 14.7239L24.9063 14.7139Z" fill="#663D29"/>
</svg>
