<svg width="32" height="32" viewBox="0 0 32 32" fill="none" xmlns="http://www.w3.org/2000/svg">
<path d="M2.52572 5.83594C1.59322 6.55094 1.11322 8.53844 1.02572 11.3534C0.938219 14.1684 1.44322 15.6984 1.62822 16.1609C1.81322 16.6234 3.20322 17.3159 4.76572 18.5234C5.91322 19.4134 14.8882 25.7734 15.9907 26.1734C18.2007 26.9759 18.7682 25.3834 18.7682 25.3834C18.7682 25.3834 19.9357 25.9109 20.8057 25.3834C21.8657 24.7534 21.4782 23.9584 21.4782 23.9584C21.4782 23.9584 22.6182 24.3359 23.3407 23.7784C23.6152 23.5898 23.8212 23.3174 23.928 23.002C24.0348 22.6865 24.0366 22.345 23.9332 22.0284C24.1748 22.1681 24.4484 22.2428 24.7275 22.2455C25.0065 22.2481 25.2815 22.1785 25.5257 22.0434C26.4407 21.5434 26.9032 20.7934 26.3032 19.7384C25.5732 18.4659 22.6507 14.9984 21.9507 14.0884C21.2507 13.1784 19.1782 8.20344 17.4507 7.68344C15.7209 7.12203 13.8634 7.08636 12.1132 7.58094C10.3032 8.11844 8.69822 8.33094 6.68822 7.75094C4.67822 7.17094 2.52572 5.83594 2.52572 5.83594Z" fill="#B8B8B8"/>
<path d="M30.8276 10.25C30.4576 7.78501 29.9701 6.11001 29.6076 5.70751C29.1926 5.24751 28.4801 6.16001 26.9726 6.70751C25.4651 7.25501 22.7501 7.43501 22.7501 7.43501C22.7501 7.43501 18.3826 7.30501 16.7501 7.85501C16.1351 8.06251 10.0676 10.605 9.8851 11.69C9.8076 12.145 10.3126 13.1625 11.5676 13.265C13.6051 13.4325 16.1501 11.6575 16.1501 11.6575C16.1801 11.605 16.4826 11.5225 17.8751 11.5225C19.2676 11.5225 20.8751 12.435 20.9876 12.605C21.8762 14.0355 22.8715 15.3969 23.9651 16.6775C24.6626 17.525 26.3026 19.765 26.3026 19.765C26.3026 19.765 28.1451 17.5875 28.6151 17.085C29.0851 16.5825 30.8251 15.31 30.8251 15.31C31.0533 13.6311 31.0541 11.9291 30.8276 10.25ZM6.6476 21.4575C6.6476 21.4575 5.9826 21.7075 5.3751 20.8225C4.7676 19.9375 5.2751 19.35 5.8951 18.8625C6.5151 18.375 7.3351 18.14 7.8201 18.51C8.13656 18.774 8.37439 19.12 8.5076 19.51C8.5076 19.51 9.5076 18.6875 10.4176 19.1925C10.6749 19.3291 10.89 19.5332 11.0398 19.783C11.1896 20.0328 11.2683 20.3188 11.2676 20.61C11.5426 20.4576 11.8519 20.3777 12.1663 20.3777C12.4808 20.3777 12.79 20.4576 13.0651 20.61C13.9876 21.14 13.5351 22.6775 13.5351 22.6775C13.8382 22.6905 14.1283 22.8047 14.3589 23.0018C14.5896 23.1989 14.7475 23.4676 14.8076 23.765C15.0101 24.82 14.7576 25.945 13.5576 26.145C12.3576 26.345 11.6476 25.215 11.6476 25.215C11.6476 25.215 10.4426 25.9425 9.5551 25.34C8.6676 24.7375 8.7501 23.485 8.7501 23.485C8.7501 23.485 7.6626 23.665 7.0501 23.095C6.4376 22.525 6.6476 21.4575 6.6476 21.4575Z" fill="#BA8D68"/>
<path d="M26.1546 19.5614L25.7896 19.0214C26.0671 19.1739 26.7071 19.0564 27.5146 17.9189C28.0146 17.1964 28.9821 15.7389 30.8046 14.9814C30.8046 14.9814 30.9396 15.6714 30.5321 15.9514C29.5889 16.5981 28.7664 17.4054 28.1021 18.3364C27.6296 19.0227 27.0652 19.6409 26.4246 20.1739C26.3781 19.9532 26.2862 19.7446 26.1546 19.5614ZM24.9021 14.7139H24.8621C23.0795 14.5539 21.3874 13.8564 20.0096 12.7139C19.5771 12.3789 19.2371 12.1164 18.9121 12.0664C17.9921 11.9289 17.0846 11.8164 16.1046 12.1139C15.8789 12.2019 15.6579 12.3011 15.4421 12.4114C14.5396 12.8389 13.1771 13.4864 12.1746 13.5914C11.8267 13.6427 11.4718 13.62 11.1332 13.5248C10.7946 13.4296 10.4799 13.264 10.2096 13.0389C10.0183 12.8703 9.86427 12.6635 9.7575 12.4319C9.65073 12.2003 9.59356 11.9489 9.58965 11.6939C9.58965 10.8164 10.6996 10.3014 11.4346 9.95889C11.8371 9.77139 12.3821 9.45889 12.9596 9.13889C13.9596 8.57139 15.1146 7.92639 15.9596 7.66139C17.3396 7.22389 20.9746 7.09389 22.1396 7.08389C24.3665 7.06155 26.5566 6.51423 28.5321 5.48639C28.7203 5.37739 28.9388 5.33263 29.1546 5.35889C29.2541 5.37744 29.3474 5.42023 29.4263 5.48347C29.5052 5.5467 29.5673 5.62841 29.6071 5.72139C27.3553 7.0791 24.7766 7.79895 22.1471 7.80389C20.7171 7.81889 17.3771 7.96889 16.1771 8.34639C15.4046 8.59639 14.2946 9.21639 13.3171 9.76639C12.7246 10.0989 12.1671 10.4139 11.7396 10.6114C11.3121 10.8089 10.3121 11.2764 10.3121 11.6939C10.3157 11.8475 10.3513 11.9987 10.4168 12.1378C10.4822 12.2769 10.576 12.4007 10.6921 12.5014C10.8877 12.6584 11.114 12.7726 11.3564 12.8368C11.5989 12.901 11.852 12.9136 12.0996 12.8739C12.9796 12.7814 14.3271 12.1389 15.1346 11.7564C15.3834 11.6281 15.6396 11.5154 15.9021 11.4189C17.1171 11.0639 18.2621 11.2364 19.0196 11.3514C19.5196 11.4289 19.9571 11.7589 20.4496 12.1414C21.7222 13.2106 23.2937 13.861 24.9496 14.0039C25.0383 14.0182 25.1184 14.065 25.1745 14.135C25.2307 14.2051 25.2588 14.2935 25.2535 14.3831C25.2482 14.4727 25.2099 14.5572 25.1459 14.6201C25.0819 14.6831 24.9968 14.72 24.9071 14.7239L24.9021 14.7139ZM15.0696 25.3164C15.22 25.0534 15.3137 24.7618 15.3447 24.4604C15.3757 24.159 15.3433 23.8545 15.2496 23.5664C15.1388 23.2889 14.9624 23.0423 14.7356 22.8477C14.5088 22.6531 14.2383 22.5163 13.9471 22.4489L13.9696 22.4089L13.9471 22.3964C14.0544 22.0693 14.0827 21.7215 14.0296 21.3814C14.0043 21.1043 13.9012 20.8399 13.7323 20.6188C13.5633 20.3976 13.3354 20.2287 13.0746 20.1314C12.6074 19.9581 12.0925 19.9644 11.6296 20.1489C11.6074 19.9091 11.5258 19.6787 11.3923 19.4784C11.2587 19.2781 11.0774 19.1141 10.8646 19.0014C9.91715 18.4264 9.21465 18.8014 8.78215 19.0514C8.69626 18.8337 8.56517 18.6366 8.39754 18.4733C8.2299 18.31 8.02953 18.1841 7.80965 18.1039C7.44965 17.9589 6.55965 17.7714 5.51965 18.7064L6.05465 19.2064C6.77715 18.5889 7.31965 18.6914 7.54215 18.7814C7.71951 18.8363 7.87198 18.9517 7.97296 19.1075C8.07393 19.2633 8.117 19.4496 8.09465 19.6339C8.09465 19.8314 8.06215 20.0364 7.59465 20.4814C6.99715 21.0014 6.57465 21.0014 6.57465 21.0014C6.37357 21.0072 6.17508 20.9549 6.00302 20.8507C5.83096 20.7464 5.69263 20.5948 5.60465 20.4139C5.54465 20.3014 5.35465 19.9139 5.60465 19.6389C5.7629 19.4342 5.94885 19.2524 6.15715 19.0989L5.62715 18.5989C5.42339 18.7772 5.2321 18.9693 5.05465 19.1739C4.88192 19.3977 4.7817 19.669 4.7674 19.9514C4.7531 20.2337 4.82541 20.5137 4.97465 20.7539C5.10925 21.0133 5.30417 21.2365 5.54301 21.4049C5.78185 21.5732 6.05763 21.6818 6.34715 21.7214C6.32355 22.0164 6.36707 22.313 6.47445 22.5888C6.58182 22.8646 6.75027 23.1125 6.96715 23.3139C7.16712 23.4983 7.40498 23.6368 7.66407 23.7197C7.92317 23.8027 8.19725 23.828 8.46715 23.7939C8.44792 24.3172 8.62643 24.8287 8.96715 25.2264C9.78215 26.0639 10.7996 25.8514 11.4671 25.4989C11.583 25.7387 11.7515 25.9491 11.9602 26.1145C12.1689 26.2799 12.4123 26.3959 12.6721 26.4539C12.8235 26.4909 12.9788 26.5094 13.1346 26.5089C13.7021 26.5089 14.4421 26.5089 15.1671 25.0914C14.9421 24.9514 14.7271 24.8414 14.5371 24.7289C13.9846 25.8239 13.2521 25.8514 12.8371 25.7539C12.6561 25.7132 12.4888 25.6261 12.3516 25.5012C12.2144 25.3763 12.1121 25.2178 12.0546 25.0414C12.6134 24.4352 13.1155 23.7791 13.5546 23.0814C14.0871 23.1939 14.4296 23.4364 14.5696 23.8064C14.6255 23.9896 14.6444 24.1821 14.6251 24.3727C14.6057 24.5633 14.5487 24.7481 14.4571 24.9164L15.0696 25.3164ZM8.74715 23.0214C8.74715 23.0214 7.97215 23.2889 7.47215 22.8064C7.31402 22.6626 7.19538 22.4808 7.12754 22.2781C7.0597 22.0755 7.04493 21.8589 7.08465 21.6489C7.78394 21.1142 8.40717 20.4868 8.93715 19.7839C8.99715 19.7514 9.74715 19.1464 10.4971 19.6064C10.6562 19.7253 10.7786 19.8867 10.8502 20.0719C10.9218 20.2572 10.9398 20.4589 10.9021 20.6539C10.8321 20.9989 10.6746 21.4039 10.0121 22.1214C9.6632 22.5123 9.23089 22.8199 8.74715 23.0214ZM13.1896 22.3789C12.7697 23.2662 12.1674 24.055 11.4221 24.6939C11.2996 24.7939 10.2671 25.5189 9.50215 24.7339C9.2662 24.4252 9.1579 24.0377 9.19965 23.6514C10.1161 22.9271 10.9017 22.0511 11.5221 21.0614C11.6935 20.9027 11.9058 20.7951 12.1352 20.7509C12.3645 20.7067 12.6016 20.7277 12.8196 20.8114C12.9576 20.8632 13.0779 20.9533 13.1664 21.0711C13.255 21.1889 13.3082 21.3295 13.3196 21.4764C13.3744 21.7842 13.3261 22.1014 13.1821 22.3789H13.1896Z" fill="#7A4F38"/>
<path d="M23.1675 15.6991C23.1675 15.6991 22.9675 15.1741 23.3025 14.8741C23.6975 14.5241 24.1375 14.6516 24.44 14.6541C23.9826 14.5271 23.5327 14.3743 23.0925 14.1966C22.5321 13.9745 21.998 13.6911 21.5 13.3516C21.7097 13.7373 21.9392 14.112 22.1875 14.4741C22.4722 14.9143 22.8005 15.3247 23.1675 15.6991Z" fill="#7A4F38"/>
</svg>
